<svg width="70" height="70" viewBox="0 0 70 70" fill="none" xmlns="http://www.w3.org/2000/svg">
<path d="M4.375 10.9375C4.375 7.31313 7.31313 4.375 10.9375 4.375L24.0625 4.375C27.6869 4.375 30.625 7.31313 30.625 10.9375V24.0625C30.625 27.6869 27.6869 30.625 24.0625 30.625H10.9375C7.31313 30.625 4.375 27.6869 4.375 24.0625L4.375 10.9375ZM10.9375 8.75C9.72938 8.75 8.75 9.72938 8.75 10.9375V24.0625C8.75 25.2706 9.72938 26.25 10.9375 26.25H24.0625C25.2706 26.25 26.25 25.2706 26.25 24.0625V10.9375C26.25 9.72938 25.2706 8.75 24.0625 8.75H10.9375ZM39.375 10.9375C39.375 7.31313 42.3131 4.375 45.9375 4.375L59.0625 4.375C62.6869 4.375 65.625 7.31313 65.625 10.9375V24.0625C65.625 27.6869 62.6869 30.625 59.0625 30.625H45.9375C42.3131 30.625 39.375 27.6869 39.375 24.0625V10.9375ZM45.9375 8.75C44.7294 8.75 43.75 9.72938 43.75 10.9375V24.0625C43.75 25.2706 44.7294 26.25 45.9375 26.25H59.0625C60.2706 26.25 61.25 25.2706 61.25 24.0625V10.9375C61.25 9.72938 60.2706 8.75 59.0625 8.75H45.9375ZM4.375 45.9375C4.375 42.3131 7.31313 39.375 10.9375 39.375H24.0625C27.6869 39.375 30.625 42.3131 30.625 45.9375V59.0625C30.625 62.6869 27.6869 65.625 24.0625 65.625H10.9375C7.31313 65.625 4.375 62.6869 4.375 59.0625L4.375 45.9375ZM10.9375 43.75C9.72938 43.75 8.75 44.7294 8.75 45.9375V59.0625C8.75 60.2706 9.72938 61.25 10.9375 61.25H24.0625C25.2706 61.25 26.25 60.2706 26.25 59.0625V45.9375C26.25 44.7294 25.2706 43.75 24.0625 43.75H10.9375ZM39.375 45.9375C39.375 42.3131 42.3131 39.375 45.9375 39.375H59.0625C62.6869 39.375 65.625 42.3131 65.625 45.9375V59.0625C65.625 62.6869 62.6869 65.625 59.0625 65.625H45.9375C42.3131 65.625 39.375 62.6869 39.375 59.0625V45.9375ZM45.9375 43.75C44.7294 43.75 43.75 44.7294 43.75 45.9375V59.0625C43.75 60.2706 44.7294 61.25 45.9375 61.25H59.0625C60.2706 61.25 61.25 60.2706 61.25 59.0625V45.9375C61.25 44.7294 60.2706 43.75 59.0625 43.75H45.9375Z" fill="white"/>
</svg>
