<svg width="70" height="70" viewBox="0 0 70 70" fill="none" xmlns="http://www.w3.org/2000/svg">
<path fill-rule="evenodd" clip-rule="evenodd" d="M26.25 15.3125C26.25 11.6881 29.1881 8.75 32.8125 8.75H37.1875C40.8119 8.75 43.75 11.6881 43.75 15.3125V19.6875C43.75 23.3119 40.8119 26.25 37.1875 26.25V30.625H61.25C62.4581 30.625 63.4375 31.6044 63.4375 32.8125V37.1875C63.4375 38.3956 62.4581 39.375 61.25 39.375C60.0419 39.375 59.0625 38.3956 59.0625 37.1875V35H37.1875V37.1875C37.1875 38.3956 36.2081 39.375 35 39.375C33.7919 39.375 32.8125 38.3956 32.8125 37.1875V35H10.9375V37.1875C10.9375 38.3956 9.95812 39.375 8.75 39.375C7.54188 39.375 6.5625 38.3956 6.5625 37.1875V32.8125C6.5625 31.6044 7.54188 30.625 8.75 30.625H32.8125V26.25C29.1881 26.25 26.25 23.3119 26.25 19.6875V15.3125ZM37.1875 21.875C38.3956 21.875 39.375 20.8956 39.375 19.6875V15.3125C39.375 14.1044 38.3956 13.125 37.1875 13.125H32.8125C31.6044 13.125 30.625 14.1044 30.625 15.3125V19.6875C30.625 20.8956 31.6044 21.875 32.8125 21.875H37.1875ZM0 50.3125C0 46.6881 2.93813 43.75 6.5625 43.75H10.9375C14.5619 43.75 17.5 46.6881 17.5 50.3125V54.6875C17.5 58.3119 14.5619 61.25 10.9375 61.25H6.5625C2.93813 61.25 0 58.3119 0 54.6875V50.3125ZM6.5625 48.125C5.35438 48.125 4.375 49.1044 4.375 50.3125V54.6875C4.375 55.8956 5.35438 56.875 6.5625 56.875H10.9375C12.1456 56.875 13.125 55.8956 13.125 54.6875V50.3125C13.125 49.1044 12.1456 48.125 10.9375 48.125H6.5625ZM26.25 50.3125C26.25 46.6881 29.1881 43.75 32.8125 43.75H37.1875C40.8119 43.75 43.75 46.6881 43.75 50.3125V54.6875C43.75 58.3119 40.8119 61.25 37.1875 61.25H32.8125C29.1881 61.25 26.25 58.3119 26.25 54.6875V50.3125ZM32.8125 48.125C31.6044 48.125 30.625 49.1044 30.625 50.3125V54.6875C30.625 55.8956 31.6044 56.875 32.8125 56.875H37.1875C38.3956 56.875 39.375 55.8956 39.375 54.6875V50.3125C39.375 49.1044 38.3956 48.125 37.1875 48.125H32.8125ZM52.5 50.3125C52.5 46.6881 55.4381 43.75 59.0625 43.75H63.4375C67.0619 43.75 70 46.6881 70 50.3125V54.6875C70 58.3119 67.0619 61.25 63.4375 61.25H59.0625C55.4381 61.25 52.5 58.3119 52.5 54.6875V50.3125ZM59.0625 48.125C57.8544 48.125 56.875 49.1044 56.875 50.3125V54.6875C56.875 55.8956 57.8544 56.875 59.0625 56.875H63.4375C64.6456 56.875 65.625 55.8956 65.625 54.6875V50.3125C65.625 49.1044 64.6456 48.125 63.4375 48.125H59.0625Z" fill="white"/>
</svg>
