<svg width="70" height="70" viewBox="0 0 70 70" fill="none" xmlns="http://www.w3.org/2000/svg">
<path d="M4.375 15.3125C4.375 11.6881 7.31313 8.75 10.9375 8.75H23.0297C27.2199 8.75 30.7332 11.1998 33.1424 13.9299C34.9354 15.9617 37.0944 17.5 39.375 17.5H59.0655C62.6919 17.5 65.625 20.4401 65.625 24.0625V26.8596C68.1168 28.0204 69.7348 30.6954 69.3684 33.6265L66.5662 56.0441C65.882 61.5176 61.2292 65.625 55.7132 65.625H14.2868C8.77081 65.625 4.11799 61.5176 3.43381 56.0441L0.631599 33.6265C0.265218 30.6954 1.88324 28.0204 4.375 26.8596V15.3125ZM8.75 26.25H61.25V24.0625C61.25 22.8524 60.2717 21.875 59.0655 21.875H39.375C35.158 21.875 31.8914 19.1243 29.8621 16.8247C27.8854 14.5848 25.468 13.125 23.0297 13.125H10.9375C9.72938 13.125 8.75 14.1044 8.75 15.3125V26.25ZM7.14342 30.625C5.82765 30.625 4.80961 31.7782 4.97282 33.0838L7.77502 55.5015C8.18553 58.7855 10.9772 61.25 14.2868 61.25H55.7132C59.0228 61.25 61.8145 58.7855 62.225 55.5015L65.0272 33.0838C65.1904 31.7782 64.1724 30.625 62.8566 30.625H7.14342Z" fill="white"/>
</svg>
