<svg width="70" height="70" viewBox="0 0 70 70" fill="none" xmlns="http://www.w3.org/2000/svg">
<path d="M18.8904 11.7574C22.9005 9.93467 28.5941 8.75 35 8.75C41.4059 8.75 47.0995 9.93467 51.1096 11.7574C55.3171 13.67 56.875 15.865 56.875 17.5C56.875 19.135 55.3171 21.33 51.1096 23.2426C47.0995 25.0653 41.4059 26.25 35 26.25C28.5941 26.25 22.9005 25.0653 18.8904 23.2426C14.6829 21.33 13.125 19.135 13.125 17.5C13.125 15.865 14.6829 13.67 18.8904 11.7574ZM56.875 24.9293V30.625C56.875 32.26 55.3171 34.455 51.1096 36.3676C47.0995 38.1903 41.4059 39.375 35 39.375C28.5941 39.375 22.9005 38.1903 18.8904 36.3676C14.6829 34.455 13.125 32.26 13.125 30.625V24.9293C14.3108 25.8145 15.6621 26.5809 17.08 27.2254C21.7789 29.3612 28.1166 30.625 35 30.625C41.8834 30.625 48.2211 29.3612 52.92 27.2254C54.3379 26.5809 55.6892 25.8145 56.875 24.9293ZM61.25 17.5C61.25 13.0944 57.4213 9.82066 52.92 7.77459C48.2211 5.63877 41.8834 4.375 35 4.375C28.1166 4.375 21.7789 5.63877 17.08 7.77459C12.5787 9.82066 8.75 13.0944 8.75 17.5V56.875C8.75 61.2806 12.5787 64.5543 17.08 66.6004C21.7789 68.7362 28.1166 70 35 70C41.8834 70 48.2211 68.7362 52.92 66.6004C57.4213 64.5543 61.25 61.2806 61.25 56.875V17.5ZM56.875 38.0543V43.75C56.875 45.385 55.3171 47.58 51.1096 49.4926C47.0995 51.3153 41.4059 52.5 35 52.5C28.5941 52.5 22.9005 51.3153 18.8904 49.4926C14.6829 47.58 13.125 45.385 13.125 43.75V38.0543C14.3108 38.9395 15.6621 39.7059 17.08 40.3504C21.7789 42.4862 28.1166 43.75 35 43.75C41.8834 43.75 48.2211 42.4862 52.92 40.3504C54.3379 39.7059 55.6892 38.9395 56.875 38.0543ZM56.875 51.1793V56.875C56.875 58.51 55.3171 60.705 51.1096 62.6176C47.0995 64.4403 41.4059 65.625 35 65.625C28.5941 65.625 22.9005 64.4403 18.8904 62.6176C14.6829 60.705 13.125 58.51 13.125 56.875V51.1793C14.3108 52.0645 15.6621 52.8309 17.08 53.4754C21.7789 55.6112 28.1166 56.875 35 56.875C41.8834 56.875 48.2211 55.6112 52.92 53.4754C54.3379 52.8309 55.6892 52.0645 56.875 51.1793Z" fill="white"/>
</svg>
