<svg width="70" height="70" viewBox="0 0 70 70" fill="none" xmlns="http://www.w3.org/2000/svg">
<path fill-rule="evenodd" clip-rule="evenodd" d="M0 0H4.375V65.625H70V70H0V0ZM43.75 15.3125C43.75 14.1044 44.7294 13.125 45.9375 13.125H63.4375C64.6456 13.125 65.625 14.1044 65.625 15.3125V32.8125C65.625 34.0206 64.6456 35 63.4375 35C62.2294 35 61.25 34.0206 61.25 32.8125V21.4406L45.443 40.7602C45.0517 41.2385 44.4762 41.529 43.859 41.5598C43.2417 41.5906 42.6402 41.3588 42.2032 40.9218L30.8884 29.607L14.8941 51.5991C14.1835 52.5762 12.8154 52.7922 11.8384 52.0816C10.8613 51.371 10.6453 50.0029 11.3559 49.0259L28.8559 24.9634C29.2322 24.446 29.8161 24.1192 30.4539 24.0692C31.0917 24.0192 31.7194 24.2508 32.1718 24.7032L43.5876 36.119L58.8213 17.5H45.9375C44.7294 17.5 43.75 16.5206 43.75 15.3125Z" fill="#1B2487"/>
</svg>
